<svg xmlns="http://www.w3.org/2000/svg" style="display: none">
    <defs>
        <symbol id="arrow" fill="currentColor">
            <path fill-rule="evenodd" clip-rule="evenodd" d="M4.29289 8.29289C4.68342 7.90237 5.31658 7.90237 5.70711 8.29289L13 15.5858L20.2929 8.29289C20.6834 7.90237 21.3166 7.90237 21.7071 8.29289C22.0976 8.68342 22.0976 9.31658 21.7071 9.70711L13.7071 17.7071C13.3166 18.0976 12.6834 18.0976 12.2929 17.7071L4.29289 9.70711C3.90237 9.31658 3.90237 8.68342 4.29289 8.29289Z" />
        </symbol>
        <symbol id="cross" fill="currentColor">
            <path fill-rule="evenodd" clip-rule="evenodd" d="M0.292893 0.292893C0.683417 -0.0976311 1.31658 -0.0976311 1.70711 0.292893L13.7071 12.2929C14.0976 12.6834 14.0976 13.3166 13.7071 13.7071C13.3166 14.0976 12.6834 14.0976 12.2929 13.7071L0.292893 1.70711C-0.0976311 1.31658 -0.0976311 0.683417 0.292893 0.292893Z" />
            <path fill-rule="evenodd" clip-rule="evenodd" d="M13.7071 0.292893C14.0976 0.683417 14.0976 1.31658 13.7071 1.70711L1.70711 13.7071C1.31658 14.0976 0.683417 14.0976 0.292893 13.7071C-0.0976311 13.3166 -0.0976311 12.6834 0.292893 12.2929L12.2929 0.292893C12.6834 -0.0976311 13.3166 -0.0976311 13.7071 0.292893Z" />
        </symbol>
    </defs>
</svg>
